<?xml version="1.0" standalone="no"?>
<!DOCTYPE svg PUBLIC "-//W3C//DTD SVG 20010904//EN"
 "http://www.w3.org/TR/2001/REC-SVG-20010904/DTD/svg10.dtd">
<svg version="1.0" xmlns="http://www.w3.org/2000/svg"
 width="415.000000pt" height="415.000000pt" viewBox="0 0 415.000000 415.000000"
 preserveAspectRatio="xMidYMid meet">
<metadata>
Created by potrace 1.14, written by Peter Selinger 2001-2017
</metadata>
<g transform="translate(0.000000,415.000000) scale(0.100000,-0.100000)"
fill="#000000" stroke="none">
<path d="M1950 4120 c0 -18 -3 -21 -9 -11 -5 7 -14 10 -20 7 -6 -4 -11 -1 -12
6 0 7 -4 4 -9 -7 -5 -11 -9 -15 -9 -8 -1 7 -8 10 -18 6 -11 -4 -14 -3 -9 5 4
7 2 12 -3 12 -6 0 -11 -8 -11 -17 0 -15 -2 -16 -10 -3 -9 13 -10 13 -10 0 0
-9 -3 -11 -8 -5 -4 6 -15 11 -25 11 -14 2 -15 -1 -6 -12 10 -12 9 -13 -5 -8
-9 3 -16 11 -16 18 0 6 -5 4 -10 -4 -8 -12 -13 -13 -29 -3 -16 10 -23 10 -34
-1 -8 -8 -28 -13 -46 -12 -18 1 -35 -2 -38 -7 -4 -6 -1 -7 7 -2 9 5 11 4 6 -3
-5 -9 -13 -9 -28 -1 -18 10 -20 9 -14 -6 5 -15 4 -16 -8 -6 -11 10 -15 8 -19
-6 -4 -16 -5 -17 -6 -1 -1 11 -8 17 -18 15 -22 -3 -62 -26 -48 -27 6 0 3 -4
-5 -10 -9 -5 -19 -5 -27 2 -9 7 -13 7 -13 0 0 -6 -9 -9 -21 -7 -15 3 -19 0
-15 -11 4 -10 1 -14 -6 -11 -7 2 -12 10 -10 16 3 16 -3 14 -19 -6 -12 -15 -12
-16 1 -8 13 7 13 6 1 -6 -10 -11 -15 -11 -18 -1 -3 6 -9 12 -14 12 -6 0 -7 -4
-4 -10 3 -5 -1 -10 -10 -10 -11 0 -15 -5 -12 -14 4 -10 1 -13 -8 -9 -8 3 -12
9 -9 14 3 5 -2 6 -10 3 -9 -3 -14 -10 -11 -14 3 -4 -2 -11 -11 -14 -10 -4 -13
-2 -9 7 4 6 1 5 -7 -3 -7 -8 -22 -22 -33 -30 -19 -14 -20 -14 -2 6 29 35 19
37 -14 2 -18 -18 -29 -28 -25 -21 3 6 1 15 -5 19 -7 4 -9 3 -6 -3 4 -6 -1 -19
-9 -29 -9 -10 -13 -13 -9 -6 8 15 -11 16 -20 1 -4 -6 -14 -8 -22 -4 -14 5 -14
3 -2 -12 7 -10 9 -15 5 -11 -5 4 -15 3 -23 -4 -11 -9 -12 -7 -7 8 5 18 5 18
-6 1 -6 -9 -8 -23 -5 -30 4 -6 -1 -3 -9 7 -14 18 -21 15 -17 -7 1 -4 -12 -10
-29 -14 -25 -4 -28 -8 -19 -20 10 -11 8 -12 -14 -4 -22 9 -25 8 -20 -6 4 -11
3 -14 -5 -9 -8 4 -12 0 -12 -11 0 -15 -2 -16 -10 -3 -8 13 -11 13 -22 1 -7 -8
-8 -11 -2 -8 6 3 11 0 11 -7 0 -9 -7 -12 -16 -8 -14 5 -14 4 -1 -14 14 -18 14
-18 -3 -4 -17 12 -20 12 -28 -3 -6 -9 -17 -17 -24 -17 -8 0 -15 -7 -15 -16 0
-14 -3 -14 -15 -4 -13 11 -14 10 -9 -4 5 -13 2 -17 -12 -14 -14 2 -19 -3 -18
-18 1 -16 -4 -20 -23 -18 -20 2 -22 0 -12 -12 10 -12 10 -15 -2 -12 -8 2 -13
-3 -11 -10 1 -8 -2 -11 -8 -7 -9 6 -14 -8 -11 -28 1 -5 -3 -6 -8 -3 -12 8 -33
-18 -23 -29 4 -5 1 -5 -6 -1 -11 6 -9 13 7 30 12 12 21 26 21 31 0 4 -13 -9
-30 -30 -16 -20 -27 -41 -25 -46 3 -4 -4 -6 -16 -4 -17 4 -19 2 -8 -11 10 -12
9 -13 -6 -8 -15 6 -17 3 -13 -13 3 -12 0 -20 -8 -20 -7 0 -10 5 -7 10 3 6 1 7
-6 3 -6 -4 -9 -12 -6 -17 4 -5 -2 -9 -12 -10 -10 0 -13 -3 -5 -6 6 -2 12 -9
12 -14 0 -4 -7 -5 -17 -2 -12 5 -14 3 -8 -7 6 -10 4 -12 -8 -7 -11 4 -14 2
-11 -8 7 -17 -26 -64 -44 -65 -8 0 -10 -5 -6 -12 5 -7 2 -9 -8 -6 -10 4 -14 0
-14 -16 1 -13 -4 -20 -13 -18 -9 2 -11 -3 -7 -14 5 -12 2 -15 -13 -11 -15 4
-18 -1 -16 -25 2 -22 0 -26 -10 -18 -9 8 -12 4 -9 -16 2 -20 -1 -24 -14 -19
-9 3 -13 3 -10 -1 4 -4 -2 -18 -13 -32 -13 -17 -16 -28 -8 -32 6 -5 3 -9 -10
-13 -12 -3 -21 -11 -21 -17 0 -9 5 -9 17 1 17 13 17 13 0 -7 -9 -11 -14 -25
-10 -29 5 -5 0 -3 -10 4 -16 13 -17 12 -8 -11 9 -23 8 -25 -12 -21 -16 3 -18
2 -8 -5 10 -7 10 -11 1 -17 -6 -4 -9 -14 -6 -22 3 -8 1 -11 -4 -8 -9 5 -15
-16 -11 -38 1 -5 -3 -6 -8 -3 -5 3 -12 -1 -15 -10 -9 -22 -8 -26 6 -18 7 5 8
3 4 -5 -5 -7 -14 -10 -22 -7 -8 3 -14 1 -14 -4 0 -6 5 -10 11 -10 5 0 7 -5 4
-10 -4 -6 -11 -7 -17 -4 -7 4 -7 0 0 -12 8 -14 6 -25 -8 -41 -10 -12 -20 -19
-24 -16 -3 4 -6 1 -6 -5 0 -7 6 -12 12 -12 7 0 2 -7 -10 -16 -18 -13 -21 -19
-11 -30 9 -11 9 -14 -1 -14 -7 0 -10 -7 -6 -15 3 -8 2 -15 -3 -15 -8 0 -10 -9
-13 -60 -1 -17 -4 -26 -8 -20 -5 8 -9 7 -13 -3 -3 -8 -1 -19 5 -25 6 -6 6 -12
-1 -16 -6 -4 -11 -14 -11 -22 0 -9 5 -12 12 -8 7 5 8 3 4 -5 -5 -7 -14 -10
-20 -8 -7 3 -13 -1 -13 -9 0 -7 5 -10 11 -7 6 3 5 0 -1 -8 -16 -17 -17 -53 -1
-43 7 4 8 3 4 -4 -4 -7 -14 -12 -22 -12 -8 0 -12 -5 -9 -10 4 -6 12 -8 18 -4
7 3 3 -2 -7 -10 -13 -10 -15 -16 -7 -16 11 0 11 -3 0 -17 -8 -9 -9 -14 -3 -10
6 3 11 -1 11 -9 0 -8 -6 -13 -13 -10 -8 3 -11 -4 -8 -22 5 -32 5 -36 -1 -85
-2 -21 -7 -42 -10 -47 -3 -6 -1 -10 5 -10 6 0 8 -5 4 -12 -10 -16 -13 -48 -4
-48 3 0 6 -9 7 -20 1 -11 -2 -18 -8 -15 -5 4 -9 1 -9 -4 0 -6 5 -11 10 -11 6
0 10 -5 10 -11 0 -5 -5 -7 -11 -3 -7 4 -7 -1 1 -16 7 -12 8 -20 3 -17 -4 3 -8
-25 -8 -63 0 -52 4 -73 19 -89 16 -18 17 -21 3 -27 -9 -3 -13 -12 -10 -20 3
-8 10 -11 17 -7 6 3 6 1 -1 -8 -15 -15 -18 -33 -5 -25 5 3 9 -1 9 -9 0 -8 -4
-12 -9 -9 -4 3 -8 1 -8 -5 0 -5 6 -12 13 -14 8 -4 8 -6 -2 -6 -11 -1 -10 -4 4
-14 14 -11 15 -16 5 -22 -9 -6 -11 -4 -5 5 5 9 4 11 -4 6 -6 -4 -8 -13 -4 -19
4 -7 8 -18 9 -25 2 -8 6 -17 10 -20 4 -4 4 1 1 10 -3 10 -3 19 1 22 4 3 8 -4
9 -14 1 -11 -3 -22 -8 -26 -6 -3 -3 -12 8 -21 10 -8 12 -12 6 -8 -8 4 -13 0
-13 -10 0 -9 4 -14 9 -10 5 3 13 0 17 -6 4 -8 3 -9 -4 -5 -16 10 -15 -7 1 -23
9 -11 9 -13 0 -7 -21 12 -15 -19 7 -39 14 -13 17 -22 10 -30 -8 -9 -6 -14 6
-19 13 -5 14 -9 4 -21 -10 -12 -10 -15 0 -15 10 0 10 -3 1 -14 -10 -12 -8 -13
11 -9 23 5 23 5 3 -11 -11 -10 -14 -15 -7 -11 6 3 12 1 12 -5 0 -6 5 -8 13 -4
8 5 8 2 -2 -9 -10 -13 -10 -17 -1 -17 9 0 9 -4 -1 -17 -10 -11 -10 -14 -1 -9
11 7 17 -10 13 -41 -1 -7 3 -13 9 -13 6 0 8 5 5 10 -3 6 -1 10 4 10 15 0 14
-13 -1 -29 -7 -7 -8 -12 -3 -11 22 5 27 -1 14 -17 -12 -14 -12 -16 0 -8 11 6
13 4 8 -8 -4 -12 -2 -14 11 -10 15 6 16 5 2 -12 -9 -11 -10 -16 -2 -11 8 5 12
1 12 -13 0 -11 8 -21 17 -23 9 -2 17 -13 18 -25 1 -15 -2 -20 -10 -15 -6 4 -3
0 7 -9 9 -9 14 -19 11 -23 -4 -3 -1 -6 6 -6 7 0 10 -4 6 -9 -3 -5 -1 -12 5
-16 6 -4 8 -11 5 -16 -3 -5 2 -6 11 -2 12 4 15 3 10 -5 -4 -7 -2 -12 5 -12 9
0 9 -3 0 -14 -9 -11 -8 -15 4 -20 10 -3 13 -11 9 -18 -6 -10 -5 -10 8 0 13 10
15 9 13 -13 -2 -13 2 -23 8 -22 6 1 16 -8 22 -20 7 -13 16 -20 21 -15 4 4 3 0
-4 -10 -11 -14 -10 -17 7 -23 12 -3 21 -11 21 -16 0 -6 -5 -7 -12 -3 -7 4 -8
3 -4 -4 4 -6 13 -9 22 -5 8 3 14 2 13 -3 -4 -22 2 -34 17 -34 8 0 12 -5 9 -10
-3 -6 -1 -10 5 -10 6 0 8 -5 5 -10 -3 -6 1 -10 9 -10 9 0 16 -7 16 -16 0 -8 5
-12 11 -9 6 4 9 0 7 -11 -2 -11 2 -18 10 -17 6 2 12 -5 12 -15 0 -15 2 -15 11
-2 9 12 10 10 6 -8 -5 -20 -3 -22 11 -10 12 10 14 10 8 1 -4 -8 -1 -13 8 -13
9 0 15 -3 15 -7 -3 -20 2 -34 11 -28 5 3 10 1 10 -5 0 -6 5 -8 12 -4 7 5 10 2
7 -7 -4 -12 46 -73 55 -66 5 4 35 -31 31 -37 -3 -3 -2 -4 1 -1 10 7 64 -24 64
-36 0 -7 6 -6 16 2 15 12 16 11 10 -7 -5 -17 -2 -23 19 -28 14 -4 25 -14 25
-24 0 -15 2 -15 10 -2 8 13 10 12 10 -4 0 -12 5 -16 15 -13 8 4 17 1 21 -5 5
-7 2 -8 -6 -3 -9 5 -11 4 -6 -4 6 -9 11 -9 22 0 9 7 14 8 13 3 -4 -16 13 -44
26 -44 7 0 18 -7 26 -16 12 -14 14 -14 27 3 13 17 14 16 7 -7 -4 -14 -4 -22 0
-18 5 4 15 2 23 -5 13 -10 14 -9 8 1 -7 11 -4 12 10 4 27 -15 54 -49 46 -58
-4 -4 -1 -4 6 0 9 6 10 11 3 20 -8 9 -7 13 4 13 8 0 12 -4 10 -8 -6 -8 19 -30
31 -28 27 5 36 -1 25 -15 -9 -11 -9 -16 0 -22 8 -4 9 -3 5 4 -4 7 -1 12 9 12
10 0 13 5 9 12 -4 7 -3 8 5 4 6 -4 9 -11 6 -16 -3 -4 2 -11 11 -14 8 -3 13 -2
9 3 -6 11 22 8 32 -4 4 -4 2 -5 -4 -1 -9 5 -11 2 -7 -9 5 -12 9 -13 20 -4 8 6
14 7 14 3 0 -5 9 -15 21 -22 12 -8 18 -9 14 -3 -3 6 -2 11 3 11 6 0 13 -7 16
-16 3 -8 10 -12 16 -9 5 3 10 1 10 -6 0 -8 4 -8 15 1 8 7 15 8 15 3 0 -12 43
-14 51 -2 4 7 9 4 12 -6 4 -9 3 -13 -2 -10 -5 3 -12 1 -16 -4 -3 -6 3 -8 15
-6 11 2 22 0 24 -4 3 -4 28 -7 56 -6 40 1 50 -1 51 -14 0 -10 3 -11 5 -4 3 7
12 9 20 6 7 -3 12 -8 9 -13 -2 -4 7 -6 20 -4 14 1 28 -2 31 -7 3 -6 10 -6 17
-1 20 15 49 23 42 11 -4 -6 -1 -10 6 -8 25 3 40 -1 35 -9 -3 -5 1 -9 8 -9 8 0
12 6 9 14 -4 9 0 11 11 7 10 -4 16 -1 16 7 0 7 3 9 6 6 4 -4 1 -13 -6 -22 -15
-18 0 -20 19 -3 10 9 12 9 7 1 -8 -15 10 -27 20 -12 4 8 3 9 -4 5 -8 -5 -10
-1 -5 9 3 9 9 13 12 8 3 -5 41 -9 84 -8 61 0 77 -3 77 -14 0 -8 3 -11 7 -8 3
4 13 1 21 -6 13 -9 14 -9 8 1 -4 7 -2 12 8 12 8 0 17 -6 19 -12 4 -10 6 -10 6
0 1 15 33 16 48 1 9 -9 10 -6 6 12 -6 23 -6 23 11 6 12 -11 25 -15 38 -11 12
4 24 1 30 -7 7 -10 9 -8 5 7 -3 17 0 21 17 19 11 -1 22 -4 24 -5 1 -1 8 -3 15
-4 6 -1 11 -8 9 -15 -1 -7 2 -10 8 -6 6 4 7 12 1 24 -7 13 -6 18 4 18 8 0 12
-4 10 -8 -3 -4 2 -10 11 -13 8 -3 12 -2 9 4 -3 6 -1 10 5 10 6 0 8 5 4 12 -4
7 -3 8 5 4 6 -4 9 -12 6 -17 -4 -5 -2 -9 3 -9 6 0 12 7 16 15 6 17 26 20 26 4
0 -5 -4 -7 -10 -4 -5 3 -10 2 -10 -4 0 -5 9 -9 19 -8 11 0 18 4 15 8 -2 4 0
10 6 14 5 3 10 1 10 -5 0 -6 5 -8 10 -5 6 4 8 10 6 14 -3 3 4 7 15 7 20 0 26
-11 9 -19 -6 -3 -5 -4 2 -3 7 2 13 13 12 26 -1 22 0 22 13 5 12 -18 18 -13 13
10 -1 5 8 1 19 -9 18 -16 23 -17 37 -5 10 8 18 12 20 9 1 -3 6 -1 11 4 5 5 3
6 -4 2 -19 -10 -16 -1 4 15 10 8 14 9 10 2 -4 -6 -3 -14 3 -18 5 -3 10 1 10 9
0 10 6 13 17 9 9 -4 14 -2 10 3 -3 6 4 11 16 11 16 2 18 0 8 -6 -10 -7 -6 -9
12 -8 18 2 23 5 15 14 -7 9 -4 11 12 8 18 -3 20 -2 10 10 -9 11 -7 12 9 8 12
-3 18 -10 14 -16 -3 -6 -1 -7 6 -3 6 4 9 11 6 16 -3 4 2 11 11 14 8 3 13 2 9
-3 -3 -5 2 -8 12 -7 9 2 20 11 24 22 5 13 8 14 8 4 1 -12 3 -13 10 -1 5 7 13
11 18 8 5 -3 15 -1 23 5 12 8 12 9 -3 4 -11 -4 -16 -2 -11 5 3 6 15 8 26 6 15
-4 18 -2 12 16 -6 21 -6 21 8 3 11 -13 17 -16 22 -7 4 6 12 8 18 5 6 -4 5 3
-2 16 -10 18 -10 21 1 14 27 -16 51 -11 60 13 5 13 13 21 19 18 5 -3 10 -1 10
6 0 6 8 9 19 6 15 -4 18 -1 13 12 -5 14 -3 14 11 3 14 -12 16 -11 12 7 -2 12
0 19 4 16 13 -8 72 25 65 37 -4 6 3 5 16 -2 20 -11 21 -10 9 12 -12 22 -11 22
6 8 17 -14 18 -13 12 3 -4 10 -3 16 3 12 5 -3 18 3 29 14 14 14 22 16 31 8 10
-10 10 -7 0 11 -11 22 -10 23 8 13 17 -9 19 -7 17 13 -2 18 1 23 15 19 11 -3
19 2 23 16 3 14 10 19 21 15 10 -4 16 -1 16 9 0 9 5 19 12 23 7 5 8 3 3 -7 -8
-12 -6 -12 8 0 9 7 14 18 10 24 -4 6 2 8 15 5 19 -5 20 -4 10 15 -10 20 -10
21 5 9 14 -12 16 -11 12 7 -3 19 -1 20 17 10 15 -8 19 -8 13 0 -7 12 43 58 57
54 4 -2 5 4 2 12 -6 15 17 45 34 45 5 0 8 11 7 24 -2 19 1 23 13 19 11 -5 13
-3 7 6 -5 10 -1 12 16 7 13 -3 18 -3 12 0 -7 3 -13 10 -13 15 0 6 5 7 12 3 8
-5 9 -2 5 9 -3 10 -2 17 4 17 6 0 7 5 4 10 -3 6 -1 10 5 10 6 0 8 5 4 13 -6 9
-4 9 8 -1 14 -11 16 -10 13 14 -2 19 3 28 17 32 13 3 18 11 15 23 -3 11 0 16
8 13 8 -3 12 3 11 18 0 13 4 22 11 21 6 -1 17 4 23 13 11 12 10 13 -6 8 -18
-5 -18 -5 -2 9 10 8 15 17 11 20 -3 4 -1 7 5 7 5 0 13 -6 15 -12 4 -10 6 -10
6 -1 1 6 -3 15 -9 18 -13 8 10 45 30 46 10 0 11 2 3 6 -7 2 -13 9 -13 14 0 6
5 7 10 4 6 -3 10 -1 10 5 0 6 5 8 10 5 6 -3 10 -1 10 4 0 6 -5 11 -11 11 -5 0
-7 5 -4 10 4 6 12 7 18 3 8 -4 7 -1 -1 9 -10 13 -10 18 -1 24 8 5 9 3 4 -6 -6
-9 -4 -11 4 -6 7 5 10 14 7 22 -3 8 0 14 7 14 7 0 8 3 2 8 -5 4 -11 13 -13 21
-3 12 -1 12 14 0 15 -12 17 -12 9 0 -6 11 -4 13 10 7 16 -6 16 -4 4 10 -11 14
-11 18 2 28 8 6 14 21 13 34 -1 16 3 21 13 18 8 -3 12 -2 8 3 -3 5 -2 11 2 14
5 2 2 2 -5 1 -9 -3 -10 1 -2 16 6 11 8 26 4 33 -6 9 -5 9 7 0 12 -10 15 -8 16
8 1 12 -3 17 -10 13 -7 -3 -2 3 11 13 16 14 20 21 11 30 -8 8 -7 13 2 18 8 6
10 4 4 -5 -5 -8 -4 -11 2 -7 6 4 10 22 8 42 -1 19 2 32 7 29 8 -5 9 -1 12 36
1 8 8 14 15 12 7 -1 10 2 6 7 -3 6 -13 8 -23 5 -12 -4 -10 0 6 13 18 15 20 21
10 32 -10 11 -10 12 0 7 7 -4 12 -1 12 8 0 9 -4 16 -10 16 -5 0 -10 5 -10 11
0 5 4 8 9 5 16 -10 21 23 6 38 -13 12 -12 15 1 20 10 4 13 2 8 -7 -4 -6 -3 -9
1 -4 10 9 15 68 5 62 -9 -6 -6 42 3 51 3 4 5 -3 2 -14 -3 -15 0 -19 12 -15 12
5 12 7 1 14 -7 5 -9 9 -5 9 4 0 3 9 -3 19 -7 15 -6 23 6 35 8 9 11 16 6 16 -6
0 -13 7 -16 16 -3 8 -2 13 3 10 5 -3 12 1 15 10 3 8 2 12 -4 9 -10 -6 -14 7
-11 33 1 8 -4 21 -11 30 -11 13 -11 14 1 7 11 -6 13 -4 8 9 -6 14 -3 17 8 12
9 -3 13 -2 10 4 -3 6 -14 10 -23 11 -11 1 -8 4 8 9 14 4 19 8 13 9 -7 1 -13
10 -13 22 0 13 -4 18 -12 13 -7 -5 -8 -3 -4 5 5 7 15 10 23 6 13 -4 14 -3 3
10 -7 8 -9 15 -5 15 4 0 3 6 -2 13 -5 6 -8 27 -7 45 2 22 -1 30 -9 26 -8 -5
-8 -2 1 7 6 7 12 17 12 22 0 4 -6 5 -12 1 -9 -5 -9 -2 1 9 10 13 10 17 1 17
-10 0 -10 3 -1 14 8 9 8 16 2 20 -5 4 -8 18 -5 32 3 18 1 23 -7 18 -8 -5 -9
-3 -4 5 12 21 12 69 0 64 -7 -2 -12 3 -12 12 0 9 6 14 14 11 9 -4 11 -2 6 7
-4 6 -8 14 -9 17 -4 21 -18 39 -26 34 -6 -4 -5 3 1 15 9 16 9 21 0 21 -8 0 -7
5 2 17 12 14 12 16 0 8 -11 -6 -13 -4 -8 8 4 12 1 17 -11 17 -15 0 -15 2 -2
10 13 9 13 10 0 10 -13 0 -13 1 0 10 8 5 10 10 5 10 -6 0 -12 12 -13 26 -1 14
-9 32 -17 40 -20 20 -19 30 0 14 13 -11 14 -10 9 4 -3 9 -14 16 -23 17 -10 0
-11 2 -3 6 8 3 5 11 -10 25 -13 11 -18 17 -11 14 6 -4 14 -2 17 3 3 5 -1 12
-10 15 -14 5 -14 9 -3 23 8 9 10 14 4 11 -5 -3 -16 0 -23 8 -7 8 -8 14 -2 14
5 0 10 5 10 11 0 5 -4 7 -10 4 -5 -3 -10 3 -10 15 0 14 -4 19 -12 14 -8 -5 -9
-2 -5 9 10 25 -2 50 -18 37 -9 -8 -11 -4 -7 15 2 15 0 25 -7 25 -6 0 -11 5
-11 11 0 5 6 7 13 3 9 -6 9 -5 0 8 -7 8 -10 18 -6 22 4 4 -1 4 -11 0 -13 -5
-17 -4 -12 4 3 6 1 14 -5 17 -5 4 -8 14 -5 22 3 8 2 12 -3 9 -5 -3 -11 4 -14
15 -4 16 -11 20 -24 15 -14 -6 -16 -5 -5 5 15 16 16 33 0 23 -8 -5 -9 0 -5 15
5 19 3 20 -11 9 -12 -10 -14 -10 -8 0 4 7 2 12 -4 12 -6 0 -8 5 -5 10 3 6 0
10 -7 10 -9 0 -9 3 2 10 13 9 13 10 0 11 -8 1 -19 1 -24 0 -5 -1 -6 10 -4 24
5 26 -6 43 -17 25 -3 -5 -12 -10 -18 -10 -8 0 -8 3 -2 8 13 9 18 35 5 27 -5
-3 -11 -1 -11 4 -1 6 -2 14 -3 19 -2 11 -46 66 -46 57 0 -5 7 -16 16 -26 12
-13 12 -19 3 -25 -7 -4 -10 -3 -6 3 4 6 0 16 -8 23 -8 7 -15 21 -15 31 0 11
-7 19 -17 19 -9 0 -13 3 -10 7 4 3 -7 14 -23 24 -19 12 -30 27 -30 41 0 19 -2
20 -10 8 -7 -12 -10 -8 -11 15 0 26 -2 27 -9 10 -8 -18 -9 -18 -9 -2 -1 10 -5
16 -10 12 -5 -3 -13 0 -17 6 -4 8 -3 9 4 5 7 -4 12 -2 12 3 0 10 -14 15 -32
12 -4 0 -10 10 -14 24 -3 14 -10 22 -15 19 -5 -3 -9 0 -9 6 0 7 -7 10 -14 7
-10 -4 -13 -1 -9 9 3 9 -1 14 -12 14 -9 0 -13 5 -9 11 4 8 -1 9 -17 4 -22 -7
-23 -7 -9 10 9 11 10 16 3 11 -7 -4 -13 -3 -13 3 0 6 -6 8 -13 5 -8 -3 -20 3
-28 13 -13 17 -13 17 6 4 19 -14 19 -14 5 2 -9 9 -27 18 -42 19 -15 1 -24 7
-21 14 2 7 -1 15 -6 19 -6 3 -8 11 -5 17 4 7 2 8 -5 4 -9 -6 -9 -11 1 -23 12
-15 11 -15 -9 -2 -13 8 -23 19 -23 25 0 6 -12 16 -27 23 l-28 12 25 -21 c25
-21 25 -21 1 -10 -13 7 -26 21 -28 31 -3 10 -10 19 -15 19 -5 0 -6 -4 -3 -10
3 -6 -1 -7 -9 -4 -9 3 -13 10 -10 15 3 5 -2 9 -11 9 -9 0 -13 5 -9 11 5 8 1 8
-14 0 -15 -8 -23 -8 -28 1 -4 7 -3 8 4 4 7 -4 12 -3 12 2 0 5 -9 12 -21 15
-13 4 -18 10 -13 18 4 8 3 10 -4 5 -6 -4 -9 -14 -6 -24 2 -9 -1 -7 -7 6 -7 12
-18 22 -26 22 -8 0 -11 5 -8 10 3 6 1 10 -4 10 -6 0 -11 -8 -12 -17 0 -12 -4
-8 -11 9 -8 24 -13 26 -29 18 -15 -8 -19 -7 -19 5 0 8 -5 15 -11 15 -5 0 -7
-5 -3 -11 5 -8 1 -8 -13 0 -11 6 -24 7 -28 3 -5 -4 -5 -1 -1 6 4 7 12 9 18 6
6 -4 8 -2 5 4 -4 5 -17 8 -29 4 -15 -4 -19 -2 -13 7 6 10 3 11 -14 2 -20 -11
-26 -8 -21 14 1 6 -4 5 -11 -2 -14 -14 -42 -6 -32 9 4 7 -3 9 -20 6 -19 -4
-24 -1 -20 10 5 12 2 12 -15 3 -25 -14 -43 -14 -22 -1 13 8 12 10 -5 11 -11 1
-26 1 -34 0 -8 -2 -10 2 -5 11 5 9 2 8 -11 -2 -11 -9 -16 -10 -11 -2 4 6 2 12
-3 12 -6 0 -11 -6 -11 -12 0 -8 -3 -9 -8 -3 -4 6 -16 17 -26 25 -18 14 -19 13
-13 -2 3 -10 1 -20 -5 -24 -6 -4 -8 -3 -5 3 4 6 -1 17 -10 24 -9 8 -14 9 -11
4 4 -6 -6 -10 -22 -10 -16 -1 -26 3 -24 7 3 5 9 6 14 3 5 -3 11 -1 15 4 3 6
-3 8 -15 6 -11 -2 -20 0 -20 6 0 5 -5 9 -11 9 -5 0 -7 -4 -4 -10 4 -6 -5 -9
-19 -8 -15 1 -26 7 -26 13 0 5 -5 3 -10 -5 -7 -11 -10 -11 -10 -2 0 8 -5 10
-12 5 -21 -12 -48 -14 -48 -2 0 5 4 7 10 4 6 -3 7 1 4 9 -5 13 -9 12 -23 -6
-14 -16 -20 -18 -26 -8 -5 9 -4 11 3 6 7 -4 12 -3 12 3 0 11 -69 3 -86 -10 -6
-5 -14 -6 -18 -2 -11 11 -39 13 -52 2 -7 -6 -21 -4 -38 5 -18 9 -23 16 -14 19
7 2 1 4 -14 3 -25 -1 -26 -2 -10 -20 16 -18 16 -18 -6 -5 -20 12 -24 12 -33
-1 -9 -13 -10 -13 -6 2 4 9 -1 19 -10 22 -10 4 -13 2 -10 -8 7 -18 -22 -14
-34 5 -6 10 -9 8 -9 -11z m-233 -25 c0 -8 -4 -12 -9 -9 -5 3 -6 10 -3 15 9 13
12 11 12 -6z m-197 -35 c0 -5 -5 -10 -11 -10 -5 0 -7 5 -4 10 3 6 8 10 11 10
2 0 4 -4 4 -10z m-1153 -895 c0 -8 -4 -12 -9 -9 -5 3 -6 10 -3 15 9 13 12 11
12 -6z m-182 -395 c-3 -5 -11 -10 -16 -10 -6 0 -7 5 -4 10 3 6 11 10 16 10 6
0 7 -4 4 -10z m-95 -794 c0 -2 -8 -10 -17 -17 -16 -13 -17 -12 -4 4 13 16 21
21 21 13z m-15 -46 c3 -5 1 -10 -4 -10 -6 0 -11 5 -11 10 0 6 2 10 4 10 3 0 8
-4 11 -10z m3466 -1223 l-24 -22 19 27 c10 14 21 24 23 22 3 -3 -6 -15 -18
-27z m-2831 -93 c0 -8 -19 -13 -24 -6 -3 5 1 9 9 9 8 0 15 -2 15 -3z m324
-260 c5 -14 4 -15 -9 -4 -17 14 -19 20 -6 20 5 0 12 -7 15 -16z m1813 -136
c-3 -8 -6 -5 -6 6 -1 11 2 17 5 13 3 -3 4 -12 1 -19z m-1433 -26 c3 -5 -1 -9
-9 -9 -8 0 -15 4 -15 9 0 4 4 8 9 8 6 0 12 -4 15 -8z m1201 -51 c-8 -14 -25
-14 -25 0 0 5 5 7 10 4 6 -3 10 -1 10 6 0 7 3 10 6 6 3 -3 3 -10 -1 -16z
m-885 -26 c0 -8 -2 -15 -4 -15 -2 0 -6 7 -10 15 -3 8 -1 15 4 15 6 0 10 -7 10
-15z m380 -21 c0 -8 -19 -13 -24 -6 -3 5 1 9 9 9 8 0 15 -2 15 -3z"/>
<path d="M2105 4130 c-8 -13 15 -24 27 -12 6 6 4 11 -6 15 -8 3 -18 2 -21 -3z"/>
<path d="M2187 4125 c3 -8 9 -12 14 -9 12 7 11 11 -5 17 -10 4 -13 1 -9 -8z"/>
<path d="M503 3413 c4 -3 -1 -16 -10 -27 -18 -21 -18 -21 4 -2 20 16 23 36 6
36 -4 0 -3 -3 0 -7z"/>
<path d="M55 1890 c-3 -5 1 -10 10 -10 9 0 13 5 10 10 -3 6 -8 10 -10 10 -2 0
-7 -4 -10 -10z"/>
<path d="M110 1536 c0 -2 7 -7 16 -10 8 -3 12 -2 9 4 -6 10 -25 14 -25 6z"/>
<path d="M3819 1103 c-13 -16 -12 -17 4 -4 9 7 17 15 17 17 0 8 -8 3 -21 -13z"/>
<path d="M380 929 c0 -5 5 -7 10 -4 6 3 10 8 10 11 0 2 -4 4 -10 4 -5 0 -10
-5 -10 -11z"/>
<path d="M3715 930 c3 -5 8 -10 11 -10 2 0 4 5 4 10 0 6 -5 10 -11 10 -5 0 -7
-4 -4 -10z"/>
<path d="M1096 302 c-3 -5 1 -9 9 -9 8 0 12 4 9 9 -3 4 -7 8 -9 8 -2 0 -6 -4
-9 -8z"/>
<path d="M1926 81 c-3 -4 4 -7 14 -6 27 2 33 10 10 12 -11 1 -22 -2 -24 -6z"/>
<path d="M1990 76 c7 -7 13 -7 20 0 6 6 3 10 -10 10 -13 0 -16 -4 -10 -10z"/>
<path d="M2050 81 c0 -7 -5 -9 -12 -5 -7 5 -8 3 -3 -5 5 -9 10 -10 18 -2 6 6
8 14 4 18 -4 3 -7 1 -7 -6z"/>
<path d="M2295 80 c3 -5 8 -10 11 -10 2 0 4 5 4 10 0 6 -5 10 -11 10 -5 0 -7
-4 -4 -10z"/>
</g>
</svg>
